<svg class="ifttt-logo_image" enable-background="new 0 0 118 57" height="57px" id="ifttt_logo_83" version="1.1" viewBox="0 0 118 57" width="118px" x="0px" xmlns="http://www.w3.org/2000/svg" y="0px">
<rect fill="#FFFFFF" height="50" width="111"></rect>
<rect fill="#33CCFF" height="22" width="7" x="14" y="14"></rect>
<rect fill="#33CCFF" height="6" width="7" x="24" y="30"></rect>
<rect fill="#33CCFF" height="2" width="7" x="24" y="21"></rect>
<rect height="7" width="7" x="24" y="14"></rect>
<rect fill="#FF4400" height="7" width="9" x="31" y="14"></rect>
<rect fill="#33CCFF" height="15" width="7" x="47" y="21"></rect>
<rect height="7" width="7" x="47" y="14"></rect>
<rect fill="#FF4400" height="7" width="5" x="42" y="14"></rect>
<rect fill="#FF4400" height="7" width="5" x="54" y="14"></rect>
<rect fill="#33CCFF" height="15" width="7" x="66" y="21"></rect>
<rect height="7" width="7" x="66" y="14"></rect>
<rect fill="#FF4400" height="7" width="5" x="61" y="14"></rect>
<rect fill="#FF4400" height="7" width="5" x="73" y="14"></rect>
<rect fill="#33CCFF" height="15" width="7" x="85" y="21"></rect>
<rect height="7" width="7" x="85" y="14"></rect>
<rect fill="#FF4400" height="7" width="5" x="80" y="14"></rect>
<rect fill="#FF4400" height="7" width="5" x="92" y="14"></rect>
<rect height="7" width="7" x="24" y="23"></rect>
<rect fill="#FF4400" height="7" width="6" x="31" y="23"></rect>
</svg>
